<svg id="Layer_1" data-name="Layer 1" xmlns="http://www.w3.org/2000/svg" viewBox="0 0 512 512"><defs><style>.cls-1{fill:#e4e6ea;}.cls-2{fill:#757889;}.cls-3{opacity:0.3;}.cls-4{fill:#fff;}.cls-5{opacity:0.15;}.cls-6{fill:#9bd162;}.cls-7{fill:#f2496d;}.cls-8{fill:#2b374f;}</style></defs><title>dracula-filled</title><path class="cls-1" d="M441.6,198.4V313.6a185.6,185.6,0,1,1-371.2,0V198.4a185.6,185.6,0,1,1,371.2,0Z"/><path class="cls-2" d="M441.6,198.4v9.41a102.29,102.29,0,0,0-177.81-26.13,9.75,9.75,0,0,1-15.58,0A102.29,102.29,0,0,0,70.4,207.81v-5.72c0-101.62,80.14-187.19,181.74-189.25A185.52,185.52,0,0,1,441.6,198.4Z"/><g class="cls-3"><path class="cls-4" d="M206,492.35A185.53,185.53,0,0,1,70.4,313.6V198.4A185.52,185.52,0,0,1,206,19.65C155,58.3,121.6,122,121.6,194V318C121.6,390,155,453.7,206,492.35Z"/></g><g class="cls-5"><path d="M441.6,198.4V313.6A185.53,185.53,0,0,1,306,492.35C357,453.7,390.4,390,390.4,318V194C390.4,122,357,58.3,306,19.65A185.48,185.48,0,0,1,441.6,198.4Z"/></g><polygon class="cls-1" points="70.4 275.2 12.8 198.4 32 313.6 70.4 332.8 70.4 275.2"/><polygon class="cls-1" points="441.6 268.8 499.2 192 480 307.2 441.6 326.4 441.6 268.8"/><path class="cls-6" d="M332.8,416c-15.05-7.64-43.08-12.8-75.3-12.8s-60.25,5.16-75.3,12.8"/><line class="cls-4" x1="121.6" y1="217.6" x2="230.4" y2="262.4"/><path class="cls-7" d="M147.2,230.4v29.55a38.16,38.16,0,0,0,.82,7.46c2.84,13.51,13.09,24.2,25.65,26.49,20.12,3.67,37.53-13.12,37.53-34.34V256Z"/><line class="cls-4" x1="390.4" y1="217.6" x2="281.6" y2="262.4"/><path class="cls-7" d="M364.8,230.4v29.55a38.16,38.16,0,0,1-.82,7.46c-2.84,13.51-13.09,24.2-25.65,26.49-20.12,3.67-37.53-13.12-37.53-34.34V256Z"/><path class="cls-2" d="M256,342.39a9.61,9.61,0,0,0,19.22,0,8.8,8.8,0,0,0-.29-2.26,5.39,5.39,0,0,0-.48-1.49l-.38-.82-10.49-19.68a8.59,8.59,0,0,0-15.15,0l-10.49,19.68-.38.82a5.39,5.39,0,0,0-.48,1.49,8.8,8.8,0,0,0-.29,2.26,9.61,9.61,0,0,0,19.22,0Z"/><path class="cls-8" d="M504.24,180.23A12.81,12.81,0,0,0,489,184.32L454.4,230.4v-32A198.32,198.32,0,0,0,256,0C146.6,0,57.6,89,57.6,198.4v38.4L23,190.72A12.8,12.8,0,0,0,.17,200.5l19.2,115.2a12.81,12.81,0,0,0,6.9,9.35L59.6,341.71C73.3,437.84,156.14,512,256,512c102.21,0,186.6-77.69,197.26-177.12l32.47-16.23a12.81,12.81,0,0,0,6.9-9.35l19.2-115.2A12.8,12.8,0,0,0,504.24,180.23ZM256,25.6A172.84,172.84,0,0,1,424.39,159.33,114.94,114.94,0,0,0,256,170.85,114.93,114.93,0,0,0,87.67,159.28C105.44,82.78,174.17,25.6,256,25.6ZM34.06,248.07,57.6,279.47v32.63l-14-7ZM256,486.4c-95.28,0-172.8-77.52-172.8-172.8V210.21a89.82,89.82,0,0,1,83.2-56.61A88.92,88.92,0,0,1,238,189.38a22.55,22.55,0,0,0,36,0A89.47,89.47,0,0,1,428.8,210.21V313.6C428.8,408.88,351.28,486.4,256,486.4ZM468.44,298.67l-14,7V273.07l23.54-31.39Z"/><path class="cls-8" d="M338.59,404.59c-17.49-8.88-47.81-14.19-81.09-14.19s-63.61,5.3-81.1,14.19A12.8,12.8,0,1,0,188,427.41a76,76,0,0,1,14.82-5.31l14.93,17.28a6.53,6.53,0,0,0,10.64-1.19l11.2-21.6c5.84-.39,11.85-.59,17.92-.59,7.31,0,14.53.29,21.46.85L290,438.19a6.53,6.53,0,0,0,10.64,1.19l14.28-16.52A70,70,0,0,1,327,427.41a12.8,12.8,0,1,0,11.59-22.83Z"/><path class="cls-8" d="M179.29,307.21a42.65,42.65,0,0,0,27.54-10.15,47.58,47.58,0,0,0,15.39-24.19l3.3,1.36a12.8,12.8,0,1,0,9.75-23.67l-108.8-44.8a12.8,12.8,0,1,0-9.75,23.67l17.68,7.28v23.37a51.23,51.23,0,0,0,1.09,10c3.91,18.6,18.34,33.25,35.88,36.44A44.21,44.21,0,0,0,179.29,307.21Zm-18.75-42.43A25.59,25.59,0,0,1,160,260V249.31l37.91,15.16a22.66,22.66,0,0,1-7.47,12.93A17.23,17.23,0,0,1,176,281.3C168.66,280,162.31,273.17,160.54,264.78Z"/><path class="cls-8" d="M385.53,205.77l-108.8,44.8a12.8,12.8,0,1,0,9.75,23.67l3.29-1.35a47.63,47.63,0,0,0,15.4,24.18,42.65,42.65,0,0,0,27.54,10.15,44.14,44.14,0,0,0,7.92-.72c17.54-3.2,32-17.84,35.88-36.45A51.28,51.28,0,0,0,377.6,260V236.71l17.68-7.28a12.8,12.8,0,1,0-9.75-23.67ZM352,259.82a25.59,25.59,0,0,1-.54,5c-1.77,8.4-8.11,15.2-15.43,16.53a17.3,17.3,0,0,1-14.47-3.9,22.63,22.63,0,0,1-7.46-12.94L352,249.31Z"/><path class="cls-8" d="M237.13,312.12l-10.77,20.23-.28.6a18,18,0,0,0-1.5,4.33,21.68,21.68,0,0,0-.61,5.11,22.41,22.41,0,0,0,32,20.24,22.41,22.41,0,0,0,32-20.24,21.68,21.68,0,0,0-.61-5.11,17.29,17.29,0,0,0-1.39-4.11l-11.16-21a21.38,21.38,0,0,0-37.74,0Zm18.87,19,6,11.25H250Z"/></svg>